#!OML:ASF F:\VICON\USERDATA\INSTALL\Justin_Nancy\Justin_Nancy.ASF
:FULLY-SPECIFIED
:DEGREES
194
root 0.786739 17.242 12.975 -2.39578 -4.47367 3.02574
lowerback 6.93338 1.06456 -3.51022
upperback 0.554766 1.18316 1.08382
thorax -3.40974 0.646895 2.97962
lowerneck -16.2281 -2.63928 -9.49242
upperneck 21.6645 -2.30488 4.78401
head 9.71955 -1.31435 2.95508
rclavicle 2.73329e-016 -4.77083e-015
rhumerus -27.9345 -12.4664 -78.9864
rradius 38.1539
rwrist 4.2173
rhand -16.5332 13.8296
rfingers 7.12502
rthumb 9.68574 -15.9277
lclavicle 2.73329e-016 -4.77083e-015
lhumerus -37.4928 13.0283 83.2505
lradius 19.6184
lwrist -13.9847
lhand -11.7309 27.398
lfingers 7.12502
lthumb 14.3163 56.8845
rfemur -14.2449 -1.54956 17.2826
rtibia 72.6122
rfoot 6.49283 -2.95152
rtoes 9.30712
lfemur -16.6424 0.319119 -27.6213
ltibia 31.9029
lfoot -10.5749 0.359089
ltoes 3.51195
195
root 0.790104 17.2407 13.1939 -2.35028 -4.09103 3.45514
lowerback 6.82665 0.897018 -3.91385
upperback 0.53629 0.930732 1.02491
thorax -3.35488 0.52616 3.17247
lowerneck -16.0879 -2.59599 -9.76786
upperneck 21.7679 -2.25357 5.05501
head 9.7319 -1.28627 3.10608
rclavicle -6.78353e-015 9.54166e-015
rhumerus -28.6492 -13.2285 -78.7579
rradius 37.6626
rwrist 5.10683
rhand -16.137 13.5464
rfingers 7.12502
rthumb 10.068 -16.1928
lclavicle -6.78353e-015 9.54166e-015
lhumerus -37.0524 12.4442 83.6198
lradius 19.9294
lwrist -14.0642
lhand -12.3941 27.1965
lfingers 7.12502
lthumb 13.6772 56.7271
rfemur -15.7988 -2.12044 16.6937
rtibia 72.9555
rfoot 4.33643 -2.75433
rtoes 6.2117
lfemur -15.7646 0.0552164 -28.2104
ltibia 31.718
lfoot -11.2283 0.305333
ltoes 3.5087
196
root 0.79049 17.2364 13.4044 -2.19683 -3.80126 3.79279
lowerback 6.86601 0.770324 -4.22908
upperback 0.485854 0.732652 0.945847
thorax -3.41561 0.433958 3.2873
lowerneck -16.2998 -2.55746 -9.69787
upperneck 21.9995 -2.20511 5.07106
head 9.84851 -1.25797 3.11043
rclavicle 8.19987e-015 1.19271e-014
rhumerus -29.318 -13.9593 -78.6076
rradius 37.1163
rwrist 5.71851
rhand -16.2727 13.2844
rfingers 7.12502
rthumb 9.93707 -16.461
lclavicle 8.19987e-015 1.19271e-014
lhumerus -36.3024 12.1285 83.7788
lradius 19.9158
lwrist -14.4092
lhand -12.9221 26.8813
lfingers 7.12502
lthumb 13.1683 56.4455
rfemur -17.6371 -2.49547 16.3124
rtibia 73.1701
rfoot 2.31563 -2.68898
rtoes 2.57722
lfemur -15.0822 -0.152147 -28.6714
ltibia 31.574
lfoot -11.7786 0.410764
ltoes 3.62085
197
root 0.790231 17.232 13.6208 -2.04158 -3.55389 4.05913
lowerback 6.92576 0.650486 -4.49372
upperback 0.390066 0.547674 0.93099
thorax -3.53477 0.350544 3.43925
lowerneck -16.5086 -2.52108 -9.60286
upperneck 22.177 -2.12256 4.91346
head 9.94181 -1.23078 3.05234
rclavicle 1.00386e-014 -1.59028e-015
rhumerus -29.8169 -14.7797 -78.2857
rradius 36.1281
rwrist 6.34655
rhand -16.0691 13.4026
rfingers 7.12502
rthumb 10.1335 -16.3334
lclavicle 1.00386e-014 -1.59028e-015
lhumerus -35.7602 11.8106 83.9309
lradius 20.1425
lwrist -15.0384
lhand -12.4813 27.2761
lfingers 7.12502
lthumb 13.5932 56.8123
rfemur -19.4312 -2.84155 16.0438
rtibia 73.1778
rfoot 0.76317 -2.73192
rtoes 0.75974
lfemur -14.3922 -0.322564 -29.0492
ltibia 31.5302
lfoot -12.4505 0.627831
ltoes 2.89479
198
root 0.788409 17.232 13.8406 -1.874 -3.17714 4.20286
lowerback 6.76936 0.494729 -4.60367
upperback 0.39281 0.339045 0.924765
thorax -3.42534 0.24585 3.51585
lowerneck -16.5231 -2.53252 -9.52116
upperneck 22.1193 -2.12076 4.76226
head 9.92177 -1.23923 2.98387
rclavicle 3.72721e-016 0
rhumerus -30.3135 -15.697 -77.9602
rradius 35.314
rwrist 6.81347
rhand -15.8441 13.087
rfingers 7.12502
rthumb 10.3506 -16.6383
lclavicle 3.72721e-016 0
lhumerus -35.1382 11.0611 84.2605
lradius 20.5257
lwrist -15.2427
lhand -12.1306 27.7042
lfingers 7.12502
lthumb 13.9312 57.2175
rfemur -21.061 -3.31021 15.9285
rtibia 72.9238
rfoot -0.765155 -2.79477
rtoes 0.675645
lfemur -13.7372 -0.518768 -29.2902
ltibia 31.5762
lfoot -13.2255 0.685351
ltoes 2.46681
199
root 0.776195 17.225 14.0503 -1.64456 -2.91414 4.02992
lowerback 6.70686 0.393902 -4.5415
upperback 0.364236 0.215686 1.02756
thorax -3.40833 0.18449 3.5998
lowerneck -16.5431 -2.5825 -9.47873
upperneck 22.0248 -2.18793 4.71849
head 9.89644 -1.26981 2.95044
rclavicle 3.95085e-015 -4.77083e-015
rhumerus -30.7324 -16.5558 -77.649
rradius 34.3754
rwrist 7.12429
rhand -15.8033 12.7829
rfingers 7.12502
rthumb 10.3899 -16.9404
lclavicle 3.95085e-015 -4.77083e-015
lhumerus -34.5165 10.6206 84.3976
lradius 20.7624
lwrist -15.7413
lhand -12.3645 26.8757
lfingers 7.12502
lthumb 13.7057 56.4044
rfemur -22.8 -3.48854 16.305
rtibia 72.4767
rfoot -2.24783 -2.96338
rtoes 1.53239
lfemur -13.2815 -0.637401 -29.1153
ltibia 31.6762
lfoot -13.9076 0.663497
ltoes 2.36283
200
root 0.769512 17.211 14.2646 -1.47827 -2.62912 4.10955
lowerback 6.66817 0.255476 -4.73256
upperback 0.406753 0.0218064 1.0949
thorax -3.32405 0.0884786 3.79635
lowerneck -16.9837 -2.58691 -9.31352
upperneck 22.3226 -2.16193 4.56575
head 10.0803 -1.26233 2.87602
rclavicle -2.68359e-015 -1.98785e-014
rhumerus -30.9599 -17.3024 -77.3422
rradius 33.3212
rwrist 7.45321
rhand -15.8679 12.8402
rfingers 7.12502
rthumb 10.3276 -16.8862
lclavicle -2.68359e-015 -1.98785e-014
lhumerus -33.7041 10.3709 84.5518
lradius 20.8966
lwrist -16.0999
lhand -12.5627 26.3621
lfingers 7.12502
lthumb 13.5147 55.9035
rfemur -24.4132 -3.79622 16.3446
rtibia 71.857
rfoot -3.67 -3.13474
rtoes 1.40057
lfemur -12.7505 -0.914449 -29.2577
ltibia 31.8791
lfoot -14.6353 0.872943
ltoes 2.76425
201
root 0.775563 17.1907 14.4908 -1.42167 -2.1294 4.45472
lowerback 6.50671 0.020508 -4.99273
upperback 0.520645 -0.301299 1.06094
thorax -3.0815 -0.0777565 3.93617
lowerneck -17.333 -2.54705 -9.21251
upperneck 22.5142 -2.05809 4.39263
head 10.2046 -1.2262 2.81402
rclavicle -3.72721e-016 -4.77083e-015
rhumerus -31.3887 -17.9095 -77.0053
rradius 32.5714
rwrist 7.6051
rhand -15.719 12.5681
rfingers 7.12502
rthumb 10.4712 -17.1512
lclavicle -3.72721e-016 -4.77083e-015
lhumerus -32.7702 10.1079 84.7213
lradius 20.9601
lwrist -16.2616
lhand -12.3989 26.1025
lfingers 7.12502
lthumb 13.6726 55.6334
rfemur -25.6617 -4.42223 15.9901
rtibia 71.0614
rfoot -5.43427 -3.31713
rtoes -0.649207
lfemur -11.9895 -1.38444 -29.7852
ltibia 32.1215
lfoot -15.5391 1.1646
ltoes 3.11813
202
root 0.773756 17.1622 14.7 -1.30429 -1.77425 4.54334
lowerback 6.60547 -0.115732 -5.04474
upperback 0.453149 -0.492521 1.07682
thorax -3.18636 -0.167728 4.0009
lowerneck -17.2906 -2.58595 -9.2593
upperneck 22.5072 -2.09771 4.3691
head 10.1979 -1.2516 2.80774
rclavicle 1.63997e-015 -7.95139e-016
rhumerus -32.1401 -18.4562 -76.5763
rradius 31.772
rwrist 7.44751
rhand -15.4555 12.7542
rfingers 7.12502
rthumb 10.7254 -16.952
lclavicle 1.63997e-015 -7.95139e-016
lhumerus -32.2672 9.37673 84.9727
lradius 21.4723
lwrist -15.7426
lhand -12.3213 26.2121
lfingers 7.12502
lthumb 13.7474 55.738
rfemur -27.0569 -4.80316 16.0612
rtibia 70.1073
rfoot -7.11424 -3.82175
rtoes -3.90954
lfemur -11.4061 -1.78996 -29.9904
ltibia 32.3126
lfoot -16.2829 1.46525
ltoes 3.30861
203
root 0.765754 17.1379 14.9049 -1.09504 -1.50625 4.79984
lowerback 6.87007 -0.18994 -5.33009
upperback 0.267739 -0.633078 1.02946
thorax -3.51058 -0.220113 4.13109
lowerneck -17.3703 -2.65664 -9.30004
upperneck 22.5754 -2.20383 4.46705
head 10.2472 -1.29298 2.83585
rclavicle -2.60905e-015 1.82882e-014
rhumerus -32.946 -19.1173 -76.1462
rradius 30.8174
rwrist 7.4947
rhand -15.2717 13.8706
rfingers 7.12502
rthumb 10.9026 -15.8263
lclavicle -2.60905e-015 1.82882e-014
lhumerus -31.924 8.36772 85.21
lradius 22.1582
lwrist -14.6397
lhand -12.2132 26.5375
lfingers 7.12502
lthumb 13.8515 56.0562
rfemur -28.6021 -4.98256 16.0258
rtibia 68.9562
rfoot -8.35076 -4.58422
rtoes -8.30548
lfemur -10.9047 -2.13448 -30.335
ltibia 32.4267
lfoot -17.0113 1.74331
ltoes 3.50815
204
root 0.760528 17.1199 15.1292 -0.921397 -1.20371 4.99632
lowerback 6.88108 -0.320377 -5.55592
upperback 0.23462 -0.824677 1.064
thorax -3.52668 -0.310132 4.31382
lowerneck -17.4388 -2.63362 -9.39329
upperneck 22.3911 -2.14426 4.50642
head 10.1908 -1.26484 2.87079
rclavicle -2.98177e-015 2.8625e-014
rhumerus -33.4486 -19.5049 -75.7401
rradius 29.9352
rwrist 7.56744
rhand -15.2623 14.6142
rfingers 7.12502
rthumb 10.9117 -15.0822
lclavicle -2.98177e-015 2.8625e-014
lhumerus -31.2493 7.6942 85.4733
lradius 22.602
lwrist -13.9068
lhand -12.2162 26.5466
lfingers 7.12502
lthumb 13.8487 56.0656
rfemur -29.8363 -5.16889 15.9513
rtibia 67.4707
rfoot -9.16478 -5.06271
rtoes -9.54745
lfemur -10.1876 -2.50153 -30.6447
ltibia 32.4256
lfoot -17.7306 2.02821
ltoes 3.20961
205
root 0.750198 17.1062 15.3502 -0.756418 -1.01025 5.00428
lowerback 6.88022 -0.402413 -5.626
upperback 0.261984 -0.936673 1.12072
thorax -3.48277 -0.366267 4.42313
lowerneck -17.4671 -2.65249 -9.47235
upperneck 22.1607 -2.15542 4.56355
head 10.1158 -1.26537 2.89908
rclavicle 4.72114e-015 1.74931e-014
rhumerus -33.9017 -20.0108 -75.3842
rradius 29.1253
rwrist 7.85458
rhand -15.1474 14.975
rfingers 7.12502
rthumb 11.0226 -14.7156
lclavicle 4.72114e-015 1.74931e-014
lhumerus -30.4657 7.05394 85.629
lradius 22.9989
lwrist -12.9572
lhand -12.7001 25.8061
lfingers 7.12502
lthumb 13.3823 55.3563
rfemur -30.9303 -5.05228 16.1034
rtibia 65.6603
rfoot -9.89206 -5.60727
rtoes -10.2011
lfemur -9.36384 -2.76322 -30.7181
ltibia 32.1267
lfoot -18.2183 2.26383
ltoes 2.67595
206
root 0.741377 17.1032 15.5666 -0.612271 -0.743728 5.11276
lowerback 7.04236 -0.488111 -5.78454
upperback 0.208281 -1.07346 1.14644
thorax -3.61061 -0.425945 4.55689
lowerneck -17.5515 -2.71157 -9.4733
upperneck 22.1051 -2.22339 4.54409
head 10.1172 -1.29718 2.88166
rclavicle 1.51076e-014 1.03368e-014
rhumerus -34.4997 -20.4139 -74.974
rradius 28.4021
rwrist 8.15704
rhand -15.0316 15.1497
rfingers 7.12502
rthumb 11.1343 -14.5349
lclavicle 1.51076e-014 1.03368e-014
lhumerus -29.9324 6.10922 85.8805
lradius 23.5161
lwrist -11.6253
lhand -13.4962 25.2005
lfingers 7.12502
lthumb 12.6148 54.7996
rfemur -31.9171 -5.04037 16.1216
rtibia 63.5639
rfoot -10.0951 -6.1789
rtoes -11.0493
lfemur -8.37274 -2.9857 -30.8754
ltibia 31.5596
lfoot -18.686 2.32862
ltoes 3.33313
207
root 0.742725 17.0993 15.803 -0.632764 -0.385537 5.60272
lowerback 7.06426 -0.614424 -6.19649
upperback 0.27789 -1.27784 1.05787
thorax -3.51909 -0.526179 4.71623
lowerneck -17.7261 -2.71325 -9.53032
upperneck 22.0755 -2.21194 4.62935
head 10.14 -1.28437 2.92261
rclavicle 3.77691e-015 -9.54166e-015
rhumerus -35.075 -20.6689 -74.5961
rradius 27.8601
rwrist 8.62474
rhand -14.8287 15.1358
rfingers 7.12502
rthumb 11.3299 -14.5382
lclavicle 3.77691e-015 -9.54166e-015
lhumerus -29.2739 5.28605 86.0749
lradius 23.9079
lwrist -10.9064
lhand -13.4747 25.2914
lfingers 7.12502
lthumb 12.6356 54.8892
rfemur -32.5135 -5.41468 15.6002
rtibia 61.2476
rfoot -9.11994 -6.43342
rtoes -9.43799
lfemur -6.98148 -3.06278 -31.5015
ltibia 30.7969
lfoot -19.1765 2.28637
ltoes 3.57559
208
root 0.744092 17.0876 16.0367 -0.494534 -0.0326798 6.16666
lowerback 6.80822 -0.754767 -6.68575
upperback 0.475956 -1.48355 0.946266
thorax -3.13361 -0.641127 4.88499
lowerneck -17.9737 -2.71921 -9.65524
upperneck 21.7715 -2.20484 4.84001
head 10.08 -1.25849 3.01463
rclavicle 6.26172e-015 -8.74653e-015
rhumerus -35.4899 -21.0787 -74.3211
rradius 27.5768
rwrist 9.25404
rhand -14.6037 14.6086
rfingers 7.12502
rthumb 11.5469 -15.0534
lclavicle 6.26172e-015 -8.74653e-015
lhumerus -28.264 4.95857 86.0807
lradius 24.2524
lwrist -10.8943
lhand -13.2098 25.1422
lfingers 7.12502
lthumb 12.891 54.724
rfemur -33.1572 -5.84332 15.0007
rtibia 58.7687
rfoot -7.47058 -6.47046
rtoes -1.86328
lfemur -5.74014 -3.03295 -32.1719
ltibia 29.8648
lfoot -19.458 2.03874
ltoes 3.71017
